# xmcd CD database file
#
# Track frame offsets:
#	187
#	12500
#	40180
#	61530
#	82215
#	94455
#	130942
#	149392
#	161575
#	180077
#	194055
#	214382
#
# Disc length: 3442 seconds
#
# Revision: 0
# Processed by: cddbd v1.5.1PL0 Copyright (c) Steve Scherf et al.
# Submitted via: CDex 1.51
#
DISCID=ac0d700c
DTITLE=Various Artist - Be Jaz!: There's A Small Hotel
DYEAR=1995
DGENRE=Jazz
TTITLE0=Johnny Hammond Smith - Ebb Tide
TTITLE1=Harold Mabern - A Treat For Bea
TTITLE2=Houston Person - Up Up and Away
TTITLE3=Gene Ammons and Sonny Stitt with Jack McDuff - When You Wish Upon A Star
TTITLE4=Wally Richardson - Lonely Rider
TTITLE5=Red Holloway with Jack Mcduff Quartet - Wives And Lovers
TTITLE6=Clark Terry Quintet - Digits
TTITLE7=Benny Green - There's A Small Hotel
TTITLE8=Gerry Mulligan Quartet - Moonlight In Vermont
TTITLE9=James Moody - Over The Rainbow
TTITLE10=Willis Jackson - Come Back To Sorrento
TTITLE11=Gene Ammons - The Song Is You
EXTD=YEAR: 1995
EXTT0=
EXTT1=
EXTT2=
EXTT3=
EXTT4=
EXTT5=
EXTT6=
EXTT7=
EXTT8=
EXTT9=
EXTT10=
EXTT11=
PLAYORDER=
